<svg width="73" height="55" viewBox="0 0 73 55" fill="none" xmlns="http://www.w3.org/2000/svg">
<rect x="11.3076" y="23.5714" width="61.6925" height="31.4286" fill="#5497D7"/>
<path d="M62.8565 26.4134H21.6174C21.6174 31.0274 16.9613 33.4068 14.6333 34.0198V44.9696C20.4866 45.9727 21.7282 50.2913 21.6174 52.3252H62.8565C62.8565 46.7751 67.568 45.1089 69.9237 44.9696V34.0198C64.536 33.5517 62.9674 28.7538 62.8565 26.4134Z" fill="#2C53AC"/>
<path d="M62.8565 26.4134H21.6174C21.6174 31.0274 16.9613 33.4068 14.6333 34.0198V44.9696C20.4866 45.9727 21.7282 50.2913 21.6174 52.3252H62.8565C62.8565 46.7751 67.568 45.1089 69.9237 44.9696V34.0198C64.536 33.5517 62.9674 28.7538 62.8565 26.4134Z" stroke="white"/>
<mask id="path-4-inside-1_8_578" fill="white">
<ellipse cx="43.0685" cy="39.2857" rx="10.9749" ry="11.0334"/>
</mask>
<ellipse cx="43.0685" cy="39.2857" rx="10.9749" ry="11.0334" fill="#76D3F6"/>
<path d="M33.0434 39.2857C33.0434 33.8867 37.4267 29.3192 43.0684 29.3192V71.3192C60.8328 71.3192 75.0434 56.8719 75.0434 39.2857H33.0434ZM43.0684 29.3192C48.7102 29.3192 53.0935 33.8867 53.0935 39.2857H11.0935C11.0935 56.8719 25.3041 71.3192 43.0684 71.3192V29.3192ZM53.0935 39.2857C53.0935 44.6847 48.7102 49.2523 43.0684 49.2523V7.25229C25.3041 7.25229 11.0935 21.6995 11.0935 39.2857H53.0935ZM43.0684 49.2523C37.4267 49.2523 33.0434 44.6847 33.0434 39.2857H75.0434C75.0434 21.6995 60.8328 7.25229 43.0684 7.25229V49.2523Z" fill="white" mask="url(#path-4-inside-1_8_578)"/>
<path d="M42.8637 45.2602C41.9339 45.2602 41.0366 45.1469 40.1718 44.9204C39.3177 44.683 38.6204 44.3809 38.0798 44.0141L39.1339 41.6512C39.642 41.9749 40.2258 42.2446 40.8853 42.4604C41.5556 42.6654 42.2204 42.7679 42.8799 42.7679C43.3231 42.7679 43.6799 42.7302 43.9502 42.6546C44.2204 42.5683 44.415 42.4604 44.534 42.331C44.6637 42.1907 44.7286 42.0289 44.7286 41.8454C44.7286 41.5865 44.6096 41.3815 44.3718 41.2305C44.134 41.0794 43.8259 40.9553 43.4475 40.8582C43.0691 40.7611 42.6475 40.664 42.1826 40.5669C41.7285 40.4698 41.2691 40.3457 40.8042 40.1947C40.3501 40.0436 39.9339 39.8494 39.5555 39.6121C39.1771 39.3639 38.869 39.0456 38.6312 38.6572C38.3934 38.258 38.2744 37.7563 38.2744 37.1521C38.2744 36.4724 38.4582 35.8574 38.8258 35.3072C39.2042 34.7569 39.7663 34.3146 40.5123 33.9801C41.2583 33.6457 42.188 33.4784 43.3015 33.4784C44.0475 33.4784 44.7772 33.5647 45.4907 33.7374C46.2151 33.8992 46.8583 34.142 47.4205 34.4656L46.4313 36.8447C45.8907 36.5533 45.3556 36.3376 44.8259 36.1973C44.2961 36.0463 43.7826 35.9707 43.2853 35.9707C42.8421 35.9707 42.4853 36.0193 42.215 36.1164C41.9447 36.2027 41.7501 36.3214 41.6312 36.4724C41.5123 36.6235 41.4528 36.7961 41.4528 36.9903C41.4528 37.2385 41.5664 37.4381 41.7934 37.5891C42.0312 37.7294 42.3393 37.848 42.7177 37.9451C43.1069 38.0315 43.5285 38.1232 43.9826 38.2203C44.4475 38.3174 44.9069 38.4415 45.361 38.5925C45.8259 38.7328 46.2475 38.927 46.6259 39.1751C47.0043 39.4125 47.307 39.7308 47.534 40.13C47.7718 40.5184 47.8908 41.0093 47.8908 41.6027C47.8908 42.2608 47.7016 42.8704 47.3232 43.4315C46.9556 43.9817 46.3989 44.4241 45.6529 44.7585C44.9178 45.093 43.988 45.2602 42.8637 45.2602ZM42.1826 46.9757V44.6614H44.1286V46.9757H42.1826ZM42.1826 34.061V31.7629H44.1286V34.061H42.1826Z" fill="white"/>
<rect width="61.7787" height="31.3512" transform="matrix(0.944034 -0.329854 0.325661 0.945489 0 20.378)" fill="#5497D7"/>
<path d="M49.6546 6.03281L10.6707 19.6536C12.1695 24.0049 8.54108 27.7868 6.5395 29.1338L10.0965 39.4604C15.9555 38.473 18.5321 42.1358 19.088 44.0906L58.0719 30.4698C56.269 25.2355 60.1816 22.1081 62.3632 21.1986L58.8062 10.872C53.5611 12.2101 50.5197 8.2034 49.6546 6.03281Z" fill="#2C53AC"/>
<path d="M49.6546 6.03281L10.6707 19.6536C12.1695 24.0049 8.54108 27.7868 6.5395 29.1338L10.0965 39.4604C15.9555 38.473 18.5321 42.1358 19.088 44.0906L58.0719 30.4698C56.269 25.2355 60.1816 22.1081 62.3632 21.1986L58.8062 10.872C53.5611 12.2101 50.5197 8.2034 49.6546 6.03281Z" stroke="white"/>
<mask id="path-10-inside-2_8_578" fill="white">
<ellipse cx="10.9954" cy="11.0129" rx="10.9954" ry="11.0129" transform="matrix(0.944016 -0.329905 0.325611 0.945506 21.1638 17.9234)"/>
</mask>
<ellipse cx="10.9954" cy="11.0129" rx="10.9954" ry="11.0129" transform="matrix(0.944016 -0.329905 0.325611 0.945506 21.1638 17.9234)" fill="#76D3F6"/>
<path d="M25.6851 28.0093C23.8994 22.8239 26.632 17.0991 31.8777 15.2659L45.5534 54.9771C62.2644 49.1371 71.0804 30.8403 65.3338 14.1533L25.6851 28.0093ZM31.8777 15.2659C37.1234 13.4327 42.7884 16.2228 44.5741 21.4082L4.9254 35.2642C10.672 51.9512 28.8424 60.8171 45.5534 54.9771L31.8777 15.2659ZM44.5741 21.4082C46.3598 26.5936 43.6272 32.3184 38.3815 34.1516L24.7059 -5.55967C7.99485 0.280314 -0.821235 18.5772 4.9254 35.2642L44.5741 21.4082ZM38.3815 34.1516C33.1358 35.9848 27.4709 33.1947 25.6851 28.0093L65.3338 14.1533C59.5872 -2.53374 41.4169 -11.3997 24.7059 -5.55967L38.3815 34.1516Z" fill="white" mask="url(#path-10-inside-2_8_578)"/>
<path d="M36.8784 30.4165C35.9987 30.7239 35.1129 30.9137 34.221 30.9857C33.3357 31.044 32.5778 30.9894 31.9471 30.8218L32.1761 28.2427C32.7621 28.3802 33.4022 28.4419 34.0963 28.4275C34.7971 28.3994 35.4595 28.2764 36.0834 28.0583C36.5028 27.9118 36.8281 27.7582 37.0592 27.5975C37.2869 27.4267 37.4359 27.2605 37.5063 27.099C37.5835 26.9237 37.5922 26.7494 37.5326 26.5763C37.4484 26.3318 37.2692 26.1776 36.9951 26.1137C36.721 26.0497 36.3891 26.0344 35.9995 26.0679C35.61 26.1013 35.1795 26.149 34.7081 26.2111C34.2469 26.2695 33.7718 26.3043 33.2829 26.3154C32.8042 26.3229 32.3472 26.2772 31.9121 26.1782C31.4734 26.0691 31.0784 25.8705 30.7271 25.5824C30.3722 25.2842 30.0966 24.8499 29.9002 24.2795C29.6792 23.6378 29.6531 22.9965 29.822 22.3555C30.0011 21.7109 30.3891 21.1075 30.9862 20.5451C31.5832 19.9827 32.4085 19.5175 33.4621 19.1493C34.1678 18.9027 34.8863 18.7429 35.6175 18.6699C36.3555 18.5832 37.043 18.5997 37.6801 18.7194L37.5177 21.2924C36.9116 21.1961 36.3351 21.1693 35.7883 21.212C35.238 21.2446 34.7275 21.3431 34.257 21.5075C33.8377 21.654 33.5159 21.8178 33.2918 21.9989C33.0641 22.1697 32.9186 22.3461 32.8552 22.528C32.7918 22.7099 32.7916 22.8925 32.8548 23.0759C32.9355 23.3101 33.1077 23.461 33.3717 23.5286C33.6423 23.5823 33.9724 23.5925 34.362 23.5591C34.7583 23.5119 35.187 23.4591 35.6482 23.4006C36.1196 23.3386 36.5946 23.3038 37.0733 23.2963C37.5588 23.275 38.0208 23.3189 38.4595 23.4281C38.8947 23.5271 39.2846 23.7275 39.6292 24.0293C39.9805 24.3173 40.2526 24.7414 40.4455 25.3016C40.6595 25.9229 40.6787 26.561 40.5031 27.2157C40.3343 27.8567 39.9513 28.4584 39.3543 29.0207C38.7675 29.5795 37.9422 30.0448 36.8784 30.4165ZM36.7917 32.2612L36.0393 30.0764L37.8805 29.4331L38.6329 31.6178L36.7917 32.2612ZM32.5928 20.0693L31.8456 17.8998L33.6868 17.2564L34.434 19.4259L32.5928 20.0693Z" fill="white"/>
</svg>
