<svg width="53" height="48" viewBox="0 0 53 48" fill="none" xmlns="http://www.w3.org/2000/svg">
<path d="M6.3692 23.4414L5.47363 21.286L3.29333 22.0541L3.34045 19.7155L1.04021 19.5188L2.02204 17.4021L0 16.2743L1.74657 14.7453L0.351817 12.8817L2.56137 12.2046L2.0352 9.92717L4.32552 10.219L4.75935 7.92183L6.73417 9.13246L8.05258 7.21273L9.37088 9.13246L11.3458 7.92183L11.7794 10.219L14.0696 9.92717L13.5436 12.2046L15.753 12.8817L14.3587 14.7453L16.1052 16.2743L14.083 17.4021L15.0647 19.5188L12.7645 19.7155L12.812 22.0541L10.6317 21.286L9.73617 23.4414L8.05258 21.8414L6.3692 23.4414ZM6.08643 18.7384L6.0112 18.6623C5.9318 18.5645 5.8473 18.4707 5.77239 18.3691C5.26839 17.686 4.99971 16.8517 4.99626 16.0001C4.99626 13.8135 6.74567 12.0406 8.90361 12.0406C9.62094 12.0591 10.3141 12.2314 10.9301 12.614L10.9613 12.6354C10.1745 11.838 9.26233 11.4288 8.14366 11.4139C5.9855 11.4139 4.23588 13.1865 4.23588 15.3734C4.27182 16.8095 4.89943 17.9526 6.08643 18.7384ZM8.05258 20.123C5.43855 20.123 3.31924 17.9757 3.31924 15.3271C3.31924 12.6785 5.43855 10.5314 8.05258 10.5314C10.6667 10.5314 12.7857 12.6785 12.7857 15.3271C12.7857 17.9757 10.6667 20.123 8.05258 20.123ZM8.05258 20.6958C10.9788 20.6958 13.3511 18.2921 13.3511 15.3271C13.3511 12.3623 10.9788 9.95834 8.05258 9.95834C5.1262 9.95834 2.75389 12.3623 2.75389 15.3271C2.75389 18.2921 5.1262 20.6958 8.05258 20.6958Z" fill="#293D9B"/>
<path d="M35.5076 13.4397H37.4124C37.4124 19.1995 39.3188 36.4804 33.602 48H25.9805C33.602 40.3208 35.5076 28.7997 35.5076 13.4397Z" fill="white"/>
<path d="M20.9209 23.0399C22.3795 9.60017 35.5078 15.36 35.5078 15.36C35.5078 3.8396 16.5434 1.9202 20.9209 23.0399Z" fill="#5497D7"/>
<path d="M35.5078 15.3591C37.718 1.9194 58.3733 5.75896 48.8461 24.9593C50.7509 9.59935 35.5078 15.3591 35.5078 15.3591Z" fill="#5497D7"/>
<path d="M36.6099 12.9901C30.7707 0.703628 49.8759 -8.08952 52.9999 13.1448C45.8182 -0.538573 36.6099 12.9901 36.6099 12.9901Z" fill="#5497D7"/>
<path d="M35.2334 13.4398C44.1895 2.27443 26.6798 -9.10888 18.3591 11.2038C29.0299 -1.13318 35.2334 13.4398 35.2334 13.4398Z" fill="#5497D7"/>
<path d="M35.5068 15.2085C38.7231 7.05968 50.1407 12.2577 41.8551 23.0399C45.1708 13.6433 35.5068 15.2085 35.5068 15.2085Z" fill="#5497D7"/>
<path d="M39.097 15.2085C35.8807 7.05968 24.4631 12.2577 32.7488 23.0399C29.4331 13.6433 39.097 15.2085 39.097 15.2085Z" fill="#5497D7"/>
<path d="M20.1764 31.0196L19.1743 31.3482C20.104 34.2325 21.8927 43.2155 26.7593 48L30.7693 46.6873C25.5194 44.154 22.6562 38.7124 20.1764 31.0196Z" fill="white"/>
<path d="M29.4013 33.3156C26.4634 26.8362 20.4865 31.9821 20.4865 31.9821C18.6263 26.2127 28.2934 21.9852 29.4013 33.3156Z" fill="#5497D7"/>
<path d="M20.4865 31.9813C17.1533 25.6317 6.90722 31.1118 15.0203 39.0875C11.5368 31.7224 20.4865 31.9813 20.4865 31.9813Z" fill="#5497D7"/>
<path d="M19.5234 30.9851C20.6114 23.8253 9.14047 22.7121 10.926 33.8855C12.4951 25.7952 19.5234 30.9851 19.5234 30.9851Z" fill="#5497D7"/>
<path d="M20.3212 30.9731C13.8059 26.9236 21.1793 18.2074 28.8374 26.946C21.231 22.6063 20.3212 30.9731 20.3212 30.9731Z" fill="#5497D7"/>
<path d="M21.0225 33.0183C18.0146 29.4913 12.8475 34.0609 18.9476 38.0336C15.686 33.8991 21.0225 33.0183 21.0225 33.0183Z" fill="#5497D7"/>
<path d="M19.1345 33.6362C19.5099 29.0016 26.356 29.6388 23.7386 36.4652C23.9653 31.1887 19.1345 33.6362 19.1345 33.6362Z" fill="#5497D7"/>
</svg>
