<svg width="106" height="69" viewBox="0 0 106 69" fill="none" xmlns="http://www.w3.org/2000/svg">
<rect width="69.2821" height="35.0146" transform="matrix(1 -0.00330414 0.0114152 0.999941 9.73779 33.4267)" fill="#5497D7"/>
<path d="M67.6672 36.3983L21.3505 36.5524C21.4091 41.6933 16.21 44.3619 13.6031 45.0536L13.7421 57.2539C20.3288 58.3496 21.7781 63.1568 21.6794 65.4234L67.9961 65.2693C67.9256 59.0853 73.196 57.2113 75.84 57.0472L75.701 44.8469C69.6441 44.3455 67.8214 39.0056 67.6672 36.3983Z" fill="#2C53AC"/>
<path d="M67.6672 36.3983L21.3505 36.5524C21.4091 41.6933 16.21 44.3619 13.6031 45.0536L13.7421 57.2539C20.3288 58.3496 21.7781 63.1568 21.6794 65.4234L67.9961 65.2693C67.9256 59.0853 73.196 57.2113 75.84 57.0472L75.701 44.8469C69.6441 44.3455 67.8214 39.0056 67.6672 36.3983Z" stroke="white"/>
<path d="M57.4218 50.7761C57.4967 57.2796 52.2692 62.5713 45.7429 62.5922C39.2165 62.6132 33.8676 57.3555 33.7927 50.852C33.7178 44.3484 38.9453 39.0568 45.4717 39.0359C51.9981 39.0149 57.347 44.2726 57.4218 50.7761Z" fill="#76D3F6" stroke="white"/>
<path d="M45.4535 57.4594C44.411 57.4628 43.4034 57.3401 42.4308 57.0912C41.4701 56.8303 40.6843 56.4969 40.0735 56.0909L41.2253 53.4592C41.7992 53.8173 42.4572 54.1152 43.1994 54.3527C43.9536 54.5783 44.7005 54.6899 45.4399 54.6875C45.9369 54.6858 46.3365 54.6425 46.6386 54.5576C46.9405 54.4606 47.1574 54.3399 47.2891 54.1955C47.4327 54.039 47.5034 53.8588 47.5011 53.6548C47.4978 53.3668 47.3618 53.1392 47.0932 52.9721C46.8246 52.805 46.4775 52.6681 46.052 52.5615C45.6265 52.4549 45.1525 52.3484 44.63 52.2421C44.1196 52.1358 43.6028 51.9995 43.0796 51.8332C42.5686 51.6668 42.0994 51.4524 41.6721 51.1897C41.2446 50.9151 40.8951 50.5623 40.6234 50.1312C40.3516 49.6881 40.2119 49.1305 40.2042 48.4585C40.1955 47.7026 40.3938 47.0179 40.7989 46.4046C41.2162 45.7913 41.8409 45.2973 42.673 44.9226C43.5052 44.5479 44.5456 44.3585 45.7942 44.3544C46.6306 44.3517 47.45 44.445 48.2523 44.6344C49.0665 44.8118 49.7909 45.0794 50.4254 45.4374L49.3465 48.0868C48.7367 47.7648 48.1339 47.5268 47.5381 47.3727C46.9422 47.2067 46.3654 47.1245 45.8078 47.1263C45.3108 47.128 44.9114 47.1833 44.6096 47.2922C44.3076 47.3892 44.0909 47.5219 43.9595 47.6903C43.8281 47.8588 43.7636 48.051 43.7661 48.267C43.7692 48.543 43.8991 48.7645 44.1556 48.9317C44.424 49.0868 44.771 49.2177 45.1966 49.3243C45.6341 49.4189 46.108 49.5193 46.6184 49.6257C47.1409 49.732 47.6577 49.8683 48.1687 50.0346C48.6918 50.1889 49.167 50.4034 49.5945 50.678C50.0218 50.9406 50.3653 51.2935 50.6249 51.7366C50.8966 52.1678 51.0362 52.7133 51.0437 53.3733C51.0521 54.1052 50.8478 54.7839 50.4307 55.4092C50.0255 56.0225 49.4069 56.5165 48.5747 56.8912C47.7546 57.2659 46.7143 57.4553 45.4535 57.4594ZM44.7117 59.3698L44.6822 56.7959L46.8642 56.7888L46.8937 59.3627L44.7117 59.3698ZM44.547 45.0065L44.5176 42.4506L46.6997 42.4435L46.729 44.9994L44.547 45.0065Z" fill="white"/>
<rect width="69.2821" height="35.0146" transform="matrix(0.946084 -0.323939 0.331603 0.943426 0 25.4432)" fill="#5497D7"/>
<path d="M55.8208 9.67348L12.0018 24.6783C13.7065 29.5286 9.63831 33.7241 7.39113 35.2155L11.4367 46.7264C18.0268 45.6511 20.9417 49.7392 21.5754 51.9177L65.3944 36.9129C63.3438 31.0784 67.7345 27.6126 70.1861 26.6091L66.1405 15.0982C60.2428 16.5664 56.8033 12.0935 55.8208 9.67348Z" fill="#2C53AC"/>
<path d="M55.8208 9.67348L12.0018 24.6783C13.7065 29.5286 9.63831 33.7241 7.39113 35.2155L11.4367 46.7264C18.0268 45.6511 20.9417 49.7392 21.5754 51.9177L65.3944 36.9129C63.3438 31.0784 67.7345 27.6126 70.1861 26.6091L66.1405 15.0982C60.2428 16.5664 56.8033 12.0935 55.8208 9.67348Z" stroke="white"/>
<path d="M50.7296 26.5781C52.8869 32.7139 49.6333 39.4028 43.4587 41.5164C37.284 43.6299 30.5311 40.3661 28.3738 34.2304C26.2164 28.0946 29.47 21.4057 35.6447 19.2921C41.8194 17.1786 48.5723 20.4423 50.7296 26.5781Z" fill="#76D3F6" stroke="white"/>
<path d="M41.538 36.7476C40.5516 37.0853 39.5579 37.2923 38.5568 37.3687C37.5632 37.4298 36.7121 37.366 36.0033 37.1774L36.2499 34.3153C36.9084 34.4704 37.6272 34.5414 38.4064 34.5283C39.1931 34.5 39.9362 34.3661 40.6358 34.1266C41.106 33.9656 41.4706 33.7964 41.7295 33.619C41.9843 33.4303 42.151 33.2464 42.2294 33.0674C42.3153 32.8731 42.3244 32.6797 42.2567 32.4873C42.1612 32.2156 41.9594 32.0436 41.6514 31.9715C41.3434 31.8994 40.9707 31.8811 40.5335 31.9166C40.0963 31.9522 39.6132 32.0034 39.0842 32.0704C38.5667 32.1334 38.0335 32.17 37.4846 32.1804C36.9472 32.1868 36.434 32.1342 35.945 32.0225C35.4521 31.8996 35.0078 31.6775 34.6122 31.3563C34.2126 31.0238 33.9014 30.5406 33.6785 29.9066C33.4278 29.1934 33.3959 28.4813 33.5829 27.7705C33.7813 27.0557 34.2145 26.3873 34.8825 25.7655C35.5505 25.1436 36.4751 24.6305 37.6564 24.2261C38.4478 23.9552 39.2538 23.7807 40.0744 23.7027C40.9025 23.6095 41.6745 23.6306 42.3902 23.766L42.2184 26.6216C41.5375 26.5122 40.8902 26.4802 40.2765 26.5254C39.6588 26.5593 39.0861 26.6665 38.5586 26.8471C38.0883 27.0081 37.7278 27.1886 37.4769 27.3887C37.222 27.5774 37.0593 27.7726 36.9889 27.9743C36.9185 28.1759 36.9191 28.3787 36.9907 28.5825C37.0822 28.8428 37.2763 29.0111 37.5728 29.0871C37.8769 29.1479 38.2475 29.1605 38.6848 29.125C39.1295 29.0742 39.6106 29.0173 40.1281 28.9543C40.6571 28.8874 41.1903 28.8507 41.7277 28.8443C42.2726 28.8226 42.7915 28.8733 43.2845 28.9962C43.7735 29.1079 44.212 29.3319 44.6001 29.6683C44.9957 29.9895 45.3029 30.4614 45.5218 31.0841C45.7646 31.7747 45.7888 32.483 45.5943 33.2091C45.4073 33.92 44.9799 34.5864 44.3119 35.2082C43.6554 35.8262 42.7307 36.3393 41.538 36.7476ZM41.4482 38.795L40.5945 36.3667L42.659 35.66L43.5126 38.0883L41.4482 38.795ZM36.6843 25.2438L35.8366 22.8324L37.901 22.1257L38.7487 24.537L36.6843 25.2438Z" fill="white"/>
<path d="M76.3855 16.1787H89.6928M89.6928 16.1787H103M89.6928 16.1787V3M89.6928 16.1787V29.3574" stroke="#293D9B" stroke-width="6" stroke-linecap="round" stroke-linejoin="round"/>
</svg>
