<svg width="68" height="52" viewBox="0 0 68 52" fill="none" xmlns="http://www.w3.org/2000/svg">
<path d="M40.6031 0.100377H27.4974C26.7553 0.100377 26.1538 0.701456 26.1538 1.44277V1.60036C28.1364 2.15994 30.9398 2.50964 34.0503 2.50964C37.1608 2.50964 39.9641 2.15994 41.9467 1.60036V1.44277C41.9467 0.701456 41.3452 0.100377 40.6031 0.100377Z" fill="#BDA05F"/>
<path d="M41.9648 0.10039H26.0355C24.6565 0.10039 23.5386 1.21702 23.5386 2.59444V8.16707C23.5386 9.44174 24.4965 10.4911 25.7322 10.6409C25.5981 10.3427 25.5208 10.008 25.5208 9.65247V4.66643C25.5208 3.43396 26.4268 2.43483 27.5446 2.43483H40.4556C41.5733 2.43483 42.4795 3.43396 42.4795 4.66643V9.65247C42.4795 10.008 42.4021 10.3427 42.2681 10.6409C43.5037 10.4911 44.4617 9.44174 44.4617 8.16707V2.59444C44.4617 1.21702 43.3438 0.10039 41.9648 0.10039Z" fill="#CACACA"/>
<path d="M0.704102 20.3784V49.5082C0.704102 50.8844 1.80059 52 3.15318 52H64.9473C66.2999 52 67.3964 50.8844 67.3964 49.5082V20.3784H0.704102Z" fill="#293D9B"/>
<path d="M68 10.8461C68 9.34677 66.882 8.13128 65.5029 8.13128H2.49715C1.11802 8.13128 0 9.34677 0 10.8461V24.5001C0 26.8809 1.93664 28.8108 4.32548 28.8108H63.6745C66.0634 28.8108 68 26.8809 68 24.5001V10.8461Z" fill="#5497D7"/>
<path d="M39.935 29.1734C39.935 29.9157 39.3336 30.5174 38.5918 30.5174H29.509C28.7671 30.5174 28.1658 29.9157 28.1658 29.1734V26.7416C28.1658 25.9993 28.7671 25.3977 29.509 25.3977H38.5918C39.3336 25.3977 39.935 25.9993 39.935 26.7416V29.1734Z" fill="#CACACA"/>
<path d="M37.9231 28.7444C37.9231 29.2246 37.5273 29.6139 37.039 29.6139H31.0615C30.5733 29.6139 30.1775 29.2246 30.1775 28.7444V27.1708C30.1775 26.6906 30.5733 26.3011 31.0615 26.3011H37.039C37.5273 26.3011 37.9231 26.6906 37.9231 27.1708V28.7444Z" fill="#F6F6F6"/>
<path d="M40.6031 4.76837e-06H27.4974C26.7553 4.76837e-06 26.1538 0.601084 26.1538 1.3424V1.49999C28.1364 2.05956 30.9398 2.40927 34.0503 2.40927C37.1608 2.40927 39.9641 2.05956 41.9467 1.49999V1.3424C41.9467 0.601084 41.3452 4.76837e-06 40.6031 4.76837e-06Z" fill="#5497D7"/>
<path d="M26.1538 1.20463V2.26022C26.1538 3.00786 26.7553 3.61389 27.4974 3.61389H40.6031C41.3452 3.61389 41.9467 3.00786 41.9467 2.26022V1.20463C39.9641 1.7689 37.1608 2.12155 34.0503 2.12155C30.9398 2.12155 28.1364 1.7689 26.1538 1.20463Z" fill="#293D9B"/>
</svg>
